<?xml version="1.0" encoding="utf-8"?>
<!-- Generator: Adobe Illustrator 23.0.2, SVG Export Plug-In . SVG Version: 6.00 Build 0)  -->
<svg version="1.1" id="Layer_1" xmlns="http://www.w3.org/2000/svg" xmlns:xlink="http://www.w3.org/1999/xlink" x="0px" y="0px"
	 viewBox="0 0 200 200" style="enable-background:new 0 0 200 200;" xml:space="preserve">
<style type="text/css">
	.st0{fill:#05A8AA;}
	.st1{fill:#086375;}
</style>
<path class="st0" d="M169,172H40.72c-2.21,0-4-1.79-4-4V56c0-2.21,1.79-4,4-4H169c2.21,0,4,1.79,4,4v112
	C173,170.21,171.21,172,169,172z"/>
<path class="st1" d="M156.45,105.34V35.12c0-2.36-1.91-4.28-4.28-4.28H130.5v-4.56c0-2.36-1.91-4.28-4.28-4.28s-4.28,1.91-4.28,4.28
	v4.56h-17.11v-4.56c0-2.36-1.91-4.28-4.28-4.28s-4.28,1.91-4.28,4.28v4.56H79.17v-4.56c0-2.36-1.91-4.28-4.28-4.28
	s-4.28,1.91-4.28,4.28v4.56H53.5v-4.56c0-2.36-1.91-4.28-4.28-4.28s-4.28,1.91-4.28,4.28v4.56H23.28c-2.36,0-4.28,1.91-4.28,4.28
	v111.5c0,2.36,1.91,4.28,4.28,4.28h71.23C101.43,161.2,113.19,168,126.5,168c21.23,0,38.5-17.27,38.5-38.5
	C165,120.36,161.79,111.95,156.45,105.34z M44.95,39.39v4.28c0,2.36,1.91,4.28,4.28,4.28s4.28-1.91,4.28-4.28v-4.28h17.11v4.28
	c0,2.36,1.91,4.28,4.28,4.28s4.28-1.91,4.28-4.28v-4.28h17.11v4.28c0,2.36,1.91,4.28,4.28,4.28s4.28-1.91,4.28-4.28v-4.28h17.11
	v4.28c0,2.36,1.91,4.28,4.28,4.28s4.28-1.91,4.28-4.28v-4.28h17.39V56.5H27.55V39.39H44.95z M27.55,142.34V65.06h120.34v32.45
	c-6.12-4.1-13.48-6.5-21.39-6.5c-13.52,0-25.43,7-32.3,17.57c-0.58-0.29-1.23-0.46-1.92-0.46h-8.55c-2.36,0-4.28,1.91-4.28,4.28
	s1.91,4.28,4.28,4.28h6.48c-0.97,2.72-1.63,5.59-1.96,8.55h-4.52c-2.36,0-4.28,1.91-4.28,4.28s1.91,4.28,4.28,4.28h4.52
	c0.33,2.97,1,5.83,1.96,8.55H27.55z M126.5,159.45c-16.51,0-29.94-13.43-29.94-29.94s13.43-29.94,29.94-29.94
	s29.94,13.43,29.94,29.94S143.01,159.45,126.5,159.45z"/>
<path class="st1" d="M143.61,125.23h-12.83v-12.83c0-2.36-1.91-4.28-4.28-4.28s-4.28,1.91-4.28,4.28v17.11
	c0,2.36,1.91,4.28,4.28,4.28h17.11c2.36,0,4.28-1.91,4.28-4.28S145.98,125.23,143.61,125.23z"/>
<path class="st1" d="M57.78,73.9h-8.55c-2.36,0-4.28,1.91-4.28,4.28s1.91,4.28,4.28,4.28h8.55c2.36,0,4.28-1.91,4.28-4.28
	S60.14,73.9,57.78,73.9z"/>
<path class="st1" d="M57.78,91.01h-8.55c-2.36,0-4.28,1.91-4.28,4.28s1.91,4.28,4.28,4.28h8.55c2.36,0,4.28-1.91,4.28-4.28
	S60.14,91.01,57.78,91.01z"/>
<path class="st1" d="M57.78,108.12h-8.55c-2.36,0-4.28,1.91-4.28,4.28s1.91,4.28,4.28,4.28h8.55c2.36,0,4.28-1.91,4.28-4.28
	S60.14,108.12,57.78,108.12z"/>
<path class="st1" d="M83.73,82.45h8.55c2.36,0,4.28-1.91,4.28-4.28s-1.91-4.28-4.28-4.28h-8.55c-2.36,0-4.28,1.91-4.28,4.28
	S81.37,82.45,83.73,82.45z"/>
<path class="st1" d="M83.73,99.56h8.55c2.36,0,4.28-1.91,4.28-4.28s-1.91-4.28-4.28-4.28h-8.55c-2.36,0-4.28,1.91-4.28,4.28
	S81.37,99.56,83.73,99.56z"/>
<path class="st1" d="M57.78,125.23h-8.55c-2.36,0-4.28,1.91-4.28,4.28s1.91,4.28,4.28,4.28h8.55c2.36,0,4.28-1.91,4.28-4.28
	S60.14,125.23,57.78,125.23z"/>
<path class="st1" d="M117.95,82.45h8.55c2.36,0,4.28-1.91,4.28-4.28s-1.91-4.28-4.28-4.28h-8.55c-2.36,0-4.28,1.91-4.28,4.28
	S115.59,82.45,117.95,82.45z"/>
</svg>
