<svg id="Layer_1" data-name="Layer 1" xmlns="http://www.w3.org/2000/svg" viewBox="0 0 161 158"><defs><style>.cls-1{fill:#05a8aa;}.cls-2{fill:#086375;}</style></defs><title>schedule-icon-section-two</title><rect class="cls-1" x="16.72" y="26.67" width="144.28" height="131.33" rx="4"/><path class="cls-2" d="M156.45,105.34V35.12a4.28,4.28,0,0,0-4.28-4.28H130.5V26.28a4.28,4.28,0,0,0-8.56,0v4.56H104.83V26.28a4.28,4.28,0,1,0-8.55,0v4.56H79.17V26.28a4.28,4.28,0,0,0-8.56,0v4.56H53.5V26.28a4.28,4.28,0,1,0-8.55,0v4.56H23.28A4.27,4.27,0,0,0,19,35.12V146.61a4.27,4.27,0,0,0,4.28,4.28H94.51a38.48,38.48,0,1,0,61.94-45.55ZM45,39.39v4.28a4.28,4.28,0,1,0,8.55,0V39.39H70.61v4.28a4.28,4.28,0,0,0,8.56,0V39.39H96.28v4.28a4.28,4.28,0,1,0,8.55,0V39.39h17.11v4.28a4.28,4.28,0,0,0,8.56,0V39.39h17.39V56.5H27.55V39.39Zm-17.4,103V65.06H147.89V97.51a38.45,38.45,0,0,0-53.68,11.07,4.28,4.28,0,0,0-1.92-.46H83.73a4.28,4.28,0,1,0,0,8.55h6.48a38.07,38.07,0,0,0-2,8.56H83.73a4.28,4.28,0,1,0,0,8.55h4.52a38.07,38.07,0,0,0,2,8.56Zm99,17.11a29.95,29.95,0,1,1,29.95-29.95A30,30,0,0,1,126.5,159.45Z" transform="translate(-19 -22)"/><path class="cls-2" d="M143.61,125.23H130.78V112.39a4.28,4.28,0,0,0-8.55,0V129.5a4.27,4.27,0,0,0,4.27,4.28h17.11a4.28,4.28,0,1,0,0-8.55Z" transform="translate(-19 -22)"/><path class="cls-2" d="M57.78,73.9H49.23a4.28,4.28,0,1,0,0,8.55h8.55a4.28,4.28,0,1,0,0-8.55Z" transform="translate(-19 -22)"/><path class="cls-2" d="M57.78,91H49.23a4.28,4.28,0,1,0,0,8.55h8.55a4.28,4.28,0,1,0,0-8.55Z" transform="translate(-19 -22)"/><path class="cls-2" d="M57.78,108.12H49.23a4.28,4.28,0,1,0,0,8.55h8.55a4.28,4.28,0,1,0,0-8.55Z" transform="translate(-19 -22)"/><path class="cls-2" d="M83.73,82.45h8.56a4.28,4.28,0,0,0,0-8.55H83.73a4.28,4.28,0,1,0,0,8.55Z" transform="translate(-19 -22)"/><path class="cls-2" d="M83.73,99.56h8.56a4.28,4.28,0,0,0,0-8.55H83.73a4.28,4.28,0,1,0,0,8.55Z" transform="translate(-19 -22)"/><path class="cls-2" d="M57.78,125.23H49.23a4.28,4.28,0,1,0,0,8.55h8.55a4.28,4.28,0,1,0,0-8.55Z" transform="translate(-19 -22)"/><path class="cls-2" d="M118,82.45h8.55a4.28,4.28,0,1,0,0-8.55H118a4.28,4.28,0,1,0,0,8.55Z" transform="translate(-19 -22)"/></svg>