<svg id="Layer_1" data-name="Layer 1" xmlns="http://www.w3.org/2000/svg" viewBox="0 0 160 160"><defs><style>.cls-1{fill:#05a8aa;}.cls-2{fill:#086375;}</style></defs><title>schedule-icon-section-two</title><rect class="cls-1" x="15.72" y="28.67" width="144.28" height="131.33" rx="4"/><path class="cls-2" d="M170.62,111.33V34.38a4.68,4.68,0,0,0-4.68-4.69H142.19v-5a4.69,4.69,0,1,0-9.38,0v5H114.06v-5a4.69,4.69,0,1,0-9.37,0v5H85.94v-5a4.69,4.69,0,1,0-9.38,0v5H57.81v-5a4.69,4.69,0,1,0-9.37,0v5H24.69A4.69,4.69,0,0,0,20,34.38V156.56a4.69,4.69,0,0,0,4.69,4.69h78.06a42.17,42.17,0,1,0,67.87-49.92ZM48.44,39.06v4.69a4.69,4.69,0,1,0,9.37,0V39.06H76.56v4.69a4.69,4.69,0,0,0,9.38,0V39.06h18.75v4.69a4.69,4.69,0,1,0,9.37,0V39.06h18.75v4.69a4.69,4.69,0,0,0,9.38,0V39.06h19.06V57.81H29.38V39.06ZM29.38,151.88V67.19H161.25v35.56a42.15,42.15,0,0,0-58.83,12.13,4.65,4.65,0,0,0-2.11-.5H90.94a4.69,4.69,0,1,0,0,9.37H98a41.87,41.87,0,0,0-2.15,9.37h-5a4.69,4.69,0,0,0,0,9.38h5A41.83,41.83,0,0,0,98,151.88Zm108.43,18.74a32.81,32.81,0,1,1,32.81-32.81A32.84,32.84,0,0,1,137.81,170.62Z" transform="translate(-20 -20)"/><path class="cls-2" d="M156.56,133.12H142.5V119.06a4.69,4.69,0,0,0-9.38,0v18.75a4.69,4.69,0,0,0,4.69,4.69h18.75a4.69,4.69,0,0,0,0-9.38Z" transform="translate(-20 -20)"/><path class="cls-2" d="M62.5,76.88H53.12a4.69,4.69,0,0,0,0,9.37H62.5a4.69,4.69,0,1,0,0-9.37Z" transform="translate(-20 -20)"/><path class="cls-2" d="M62.5,95.63H53.12a4.69,4.69,0,0,0,0,9.37H62.5a4.69,4.69,0,1,0,0-9.37Z" transform="translate(-20 -20)"/><path class="cls-2" d="M62.5,114.38H53.12a4.69,4.69,0,0,0,0,9.37H62.5a4.69,4.69,0,1,0,0-9.37Z" transform="translate(-20 -20)"/><path class="cls-2" d="M90.94,86.25h9.37a4.69,4.69,0,1,0,0-9.37H90.94a4.69,4.69,0,1,0,0,9.37Z" transform="translate(-20 -20)"/><path class="cls-2" d="M90.94,105h9.37a4.69,4.69,0,1,0,0-9.37H90.94a4.69,4.69,0,1,0,0,9.37Z" transform="translate(-20 -20)"/><path class="cls-2" d="M62.5,133.12H53.12a4.69,4.69,0,0,0,0,9.38H62.5a4.69,4.69,0,0,0,0-9.38Z" transform="translate(-20 -20)"/><path class="cls-2" d="M128.44,86.25h9.37a4.69,4.69,0,1,0,0-9.37h-9.37a4.69,4.69,0,1,0,0,9.37Z" transform="translate(-20 -20)"/></svg>