<svg xmlns="http://www.w3.org/2000/svg" width="300" height="300" viewBox="0 0 300 300">
  <defs>
    <style>
      .cls-1, .cls-4 {
        fill: #05a8aa;
      }

      .cls-2 {
        fill: none;
      }

      .cls-2, .cls-4 {
        stroke: #086375;
        stroke-width: 15px;
      }

      .cls-3 {
        fill: #086375;
      }
    </style>
  </defs>
  <rect class="cls-1" x="66" y="69" width="203" height="201" rx="10" ry="10"/>
  <rect class="cls-2" x="31" y="46" width="224" height="195" rx="10" ry="10"/>
  <rect class="cls-3" x="74" y="31" width="13" height="43" rx="6.5" ry="6.5"/>
  <rect class="cls-3" x="116" y="31" width="13" height="43" rx="6.5" ry="6.5"/>
  <rect class="cls-3" x="158" y="31" width="13" height="43" rx="6.5" ry="6.5"/>
  <rect class="cls-3" x="200" y="31" width="13" height="43" rx="6.5" ry="6.5"/>
  <rect class="cls-3" x="74" y="116" width="27" height="13" rx="6.5" ry="6.5"/>
  <rect class="cls-3" x="130" y="116" width="27" height="13" rx="6.5" ry="6.5"/>
  <rect class="cls-3" x="186" y="116" width="27" height="13" rx="6.5" ry="6.5"/>
  <rect class="cls-3" x="74" y="144" width="27" height="13" rx="6.5" ry="6.5"/>
  <rect class="cls-3" x="74" y="172" width="27" height="13" rx="6.5" ry="6.5"/>
  <rect class="cls-3" x="74" y="200" width="27" height="13" rx="6.5" ry="6.5"/>
  <rect class="cls-3" x="130" y="144" width="27" height="13" rx="6.5" ry="6.5"/>
  <rect class="cls-3" x="130" y="172" width="27" height="13" rx="6.5" ry="6.5"/>
  <rect class="cls-3" x="130" y="200" width="27" height="13" rx="6.5" ry="6.5"/>
  <rect class="cls-3" x="31" y="88" width="224" height="14"/>
  <circle class="cls-4" cx="205.5" cy="206.5" r="63.5"/>
  <rect class="cls-3" x="200" y="172" width="13" height="40" rx="6.5" ry="6.5"/>
  <rect class="cls-3" x="200" y="200" width="40" height="13" rx="6.5" ry="6.5"/>
</svg>
