<svg id="Layer_1" data-name="Layer 1" xmlns="http://www.w3.org/2000/svg" viewBox="0 0 159 129.42"><defs><style>.cls-1{fill:#05a8aa;}.cls-2{fill:#086375;}</style></defs><title>wear-icon-section-two</title><path class="cls-1" d="M176,47.77l-50.76-13.2h-1.14a3.8,3.8,0,0,0-3.9,3.2,9.82,9.82,0,0,1-4.33,6.53,13.82,13.82,0,0,1-8.31,2.62,14,14,0,0,1-8.37-2.62,9.85,9.85,0,0,1-4.33-6.53,3.87,3.87,0,0,0-3.91-3.2H89.65L38.89,47.77a4,4,0,0,0-2.77,4.83l7.1,27.9a4,4,0,0,0,4,2.91H65.94v62.68a3.84,3.84,0,0,0,3.9,3.9H145a4,4,0,0,0,4-3.9V83.41H167.8a4,4,0,0,0,3.84-2.91l7.24-27.9A4,4,0,0,0,176,47.77Z" transform="translate(-20 -20.57)"/><path class="cls-2" d="M160,33.77l-50.76-13.2h-1.14a3.8,3.8,0,0,0-3.9,3.2,9.82,9.82,0,0,1-4.33,6.53,13.82,13.82,0,0,1-8.31,2.62,14,14,0,0,1-8.37-2.62,9.85,9.85,0,0,1-4.33-6.53,3.87,3.87,0,0,0-3.91-3.2H73.65L22.89,33.77a4,4,0,0,0-2.77,4.83l7.1,27.9a4,4,0,0,0,4,2.91H49.94v62.68a3.84,3.84,0,0,0,3.9,3.9H129a4,4,0,0,0,4-3.9V69.41H151.8a4,4,0,0,0,3.84-2.91l7.24-27.9A4,4,0,0,0,160,33.77ZM148.75,61.53H129a4,4,0,0,0-3.91,4v62.61H57.74V65.51a3.91,3.91,0,0,0-3.9-4H34.25L28.71,40.45,72.3,29.16a19.25,19.25,0,0,0,7.52,8.52,21.42,21.42,0,0,0,11.71,3.26,21.15,21.15,0,0,0,11.58-3.26,19.47,19.47,0,0,0,7.59-8.52l43.59,11.29Z" transform="translate(-20 -20.57)"/></svg>