<svg id="Layer_1" data-name="Layer 1" xmlns="http://www.w3.org/2000/svg" viewBox="0 0 161 111.61"><defs><style>.cls-1{fill:#05a8aa;}.cls-2{fill:#086375;}</style></defs><title>pickup-icon-section-two</title><path class="cls-1" d="M179.94,113.86c-.58-2.94-5.68-28.86-6.94-32.65-3-9.1-10.31-19.46-19.47-27.71C144,44.92,134.13,40,126.45,40H51.72a7,7,0,0,0-7,7v11H39.52a3.44,3.44,0,1,0,0,6.87h5.17v8.2H35.44a3.44,3.44,0,1,0,0,6.87h9.25v34.52a7,7,0,0,0,7,7h8.56a17.71,17.71,0,0,0,35,0h31.52a17.7,17.7,0,0,0,35,0H173a7,7,0,0,0,7-7A3.68,3.68,0,0,0,179.94,113.86Z" transform="translate(-19 -25)"/><path class="cls-2" d="M166.94,98.86c-.58-2.94-5.68-28.86-6.94-32.65-3-9.1-10.31-19.46-19.47-27.71C131,29.92,121.13,25,113.45,25H38.72a7,7,0,0,0-7,7v11H26.52a3.44,3.44,0,1,0,0,6.87h5.17v8.2H22.44a3.44,3.44,0,1,0,0,6.87h9.25V99.52a7,7,0,0,0,7,7h8.56a17.71,17.71,0,0,0,35,0h31.52a17.7,17.7,0,0,0,35,0H160a7,7,0,0,0,7-7A3.68,3.68,0,0,0,166.94,98.86ZM153.08,67.27h-35.4V32.49C130.22,35.86,147.61,52.54,153.08,67.27ZM64.79,114.74A10.84,10.84,0,1,1,75.62,103.9,10.85,10.85,0,0,1,64.79,114.74Zm66.53,0a10.84,10.84,0,1,1,10.84-10.84A10.85,10.85,0,0,1,131.32,114.74Zm28.49-15.06h-11.3a17.7,17.7,0,0,0-34.38,0H82a17.7,17.7,0,0,0-34.38,0H38.72a.15.15,0,0,1-.15-.15V65H80.68a3.44,3.44,0,0,0,0-6.87H38.57v-8.2H58a3.44,3.44,0,1,0,0-6.87H38.57V32a.15.15,0,0,1,.15-.15H110.8V70.71a3.44,3.44,0,0,0,3.44,3.44h40.62c1.47,6.68,3.48,17.39,5.19,25.31C160.08,99.62,160,99.68,159.81,99.68Z" transform="translate(-19 -25)"/></svg>